<svg xmlns="http://www.w3.org/2000/svg" width="32" height="32" viewBox="0 0 32 32" fill="none">
  <rect width="32" height="32" rx="7" fill="#6366f1"></rect>
  <svg x="3" y="3" width="26" height="26" viewBox="0 0 56 56">
    <g fill="none" stroke="#ffffff" stroke-width="3" stroke-linecap="round" stroke-linejoin="round">
      <path d="M28 14 C 21 10, 12 13, 13 21 C 8 23, 9 31, 15 32 C 12 38, 17 43, 24 41"></path>
      <path d="M28 14 C 35 10, 44 13, 43 21 C 48 23, 47 31, 41 32 C 44 38, 39 43, 32 41"></path>
      <path d="M28 15 L28 41"></path>
    </g>
    <g fill="#ffffff">
      <circle cx="28" cy="15" r="3.2"></circle>
      <circle cx="28" cy="41" r="3.2"></circle>
      <circle cx="19" cy="24" r="3.2"></circle>
      <circle cx="37" cy="31" r="3.2"></circle>
    </g>
  </svg>
</svg>